# xmcd CD database file
#
# Track frame offsets:
#	150
#	29610
#	66310
#	83324
#	96413
#	119961
#	131968
#	153964
#	177721
#
# Disc length: 2498 seconds
#
# Revision: 0
# Processed by: cddbd v1.5.1PL2 Copyright (c) Steve Scherf et al.
# Submitted via: CDex 1.51
#
DISCID=8409c009
DTITLE=The Electromagnets - Electromagnets II
DYEAR=1975
DGENRE=Rock
TTITLE0=Pea Szong
TTITLE1=Neon
TTITLE2=Cannonball
TTITLE3=Wake Up
TTITLE4=Melvin and the Apes
TTITLE5=Hunting Season
TTITLE6=Simon's Dance
TTITLE7=Where I Wander
TTITLE8=Chicken Pickin'
EXTD=YEAR: 1975
EXTT0=
EXTT1=
EXTT2=
EXTT3=
EXTT4=
EXTT5=
EXTT6=
EXTT7=
EXTT8=
PLAYORDER=
